<?xml version="1.0" encoding="UTF-8"?>
<svg id="Layer_1" xmlns="http://www.w3.org/2000/svg" viewBox="0 0 32 32">
  <defs>
    <style>
      .cls-1 {
        fill: #695ef7;
      }
    </style>
  </defs>
  <path class="cls-1" d="M28.26,13.19h0c-.99-1.77-2.88-2.97-5.06-2.97-3.19,0-5.78,2.59-5.78,5.78,0-4.25-2.31-7.97-5.74-9.96-1.69-.98-3.65-1.55-5.74-1.56v11.52c0,2.03.53,3.94,1.45,5.6,1.01,1.81,2.49,3.32,4.28,4.36,1.7.99,3.68,1.56,5.78,1.56,5.37,0,9.88-3.67,11.16-8.64.22-.87.35-1.79.36-2.73,0-.05,0-.1,0-.15s0-.1,0-.15c-.02-.96-.28-1.87-.73-2.66ZM24.68,16c-.81,0-1.47-.66-1.47-1.47s.66-1.47,1.47-1.47,1.47.66,1.47,1.47-.66,1.47-1.47,1.47Z"/>
  <path class="cls-1" d="M5.95,21.78v-5.78H.17c0,3.19,2.59,5.78,5.78,5.78Z"/>
  <path class="cls-1" d="M28.99,13.11v2.89h2.84c0-1.58-1.27-2.87-2.84-2.89Z"/>
</svg>