<?xml version="1.0" encoding="UTF-8"?>
<svg id="Layer_1" xmlns="http://www.w3.org/2000/svg" viewBox="0 0 763.62 242.59">
  <defs>
    <style>
      .cls-1 {
        fill: #fff;
      }
    </style>
  </defs>
  <path class="cls-1" d="M281.45,96.05h0c-9.49-17.06-27.72-28.6-48.62-28.6-30.72,0-55.63,24.91-55.63,55.63,0-40.9-22.18-76.63-55.16-95.81-16.23-9.45-35.05-14.89-55.16-14.96v110.77c0,19.54,5.06,37.91,13.96,53.85,9.69,17.42,23.97,31.95,41.19,41.96,16.35,9.52,35.36,14.97,55.63,14.97,51.63,0,95.02-35.33,107.3-83.13,2.16-8.39,3.36-17.18,3.46-26.22,0-.47.02-.95.02-1.43s0-.96-.02-1.43c-.24-9.28-2.73-17.99-6.98-25.6ZM246.96,123.08c-7.81,0-14.14-6.34-14.14-14.14s6.34-14.14,14.14-14.14,14.14,6.34,14.14,14.14-6.34,14.14-14.14,14.14Z"/>
  <path class="cls-1" d="M66.88,178.71v-55.63H11.25c0,30.72,24.91,55.63,55.63,55.63Z"/>
  <path class="cls-1" d="M288.45,95.28v27.8h27.34c0-15.2-12.2-27.56-27.34-27.8Z"/>
  <path class="cls-1" d="M612.16,101.18c4.38,8.01,12.89,13.46,22.64,13.46h91.41c14.21-.01,25.78-11.58,25.78-25.79s-11.57-25.79-25.79-25.79-25.79,11.57-25.79,25.79h6.29c0-10.75,8.75-19.5,19.5-19.5s19.5,8.75,19.5,19.5-8.75,19.5-19.5,19.5h0s-38.23,0-38.23,0h-53.17c-10.72,0-19.44-8.7-19.49-19.4,0-.03,0-.07,0-.1,0-14.22-11.57-25.79-25.79-25.79s-25.79,11.57-25.79,25.79c0,.02,0,.04,0,.05-.03,10.73-8.76,19.45-19.5,19.45-4.01,0-7.86-1.21-11.15-3.52-5.23-3.61-8.35-9.58-8.35-15.98v-43.9h-6.29v43.9c0,8.46,4.14,16.36,11.04,21.14,4.33,3.04,9.43,4.65,14.75,4.65,9.76,0,18.26-5.45,22.64-13.46,4.38,8.01,12.89,13.46,22.64,13.46s18.26-5.44,22.64-13.45ZM589.52,108.34c-10.74,0-19.47-8.72-19.5-19.45,0-.02,0-.04,0-.05h0c0-10.75,8.75-19.5,19.5-19.5s19.5,8.75,19.5,19.5c0,0,0,0,0,0h0s0,.06,0,.1c-.06,10.7-8.78,19.4-19.49,19.4Z"/>
  <path class="cls-1" d="M389.42,114.8c9.77,0,18.29-5.46,22.66-13.49,4.38,8.02,12.89,13.47,22.64,13.47s18.31-5.48,22.68-13.53c4.39,7.97,12.87,13.38,22.6,13.38,14.22,0,25.79-11.57,25.79-25.79s-11.57-25.79-25.79-25.79-25.79,11.57-25.79,25.79c0,.07,0,.13,0,.19-.03,10.73-8.76,19.45-19.5,19.45s-19.47-8.74-19.5-19.56h-.01c-.04-14.18-11.59-25.71-25.79-25.71s-25.79,11.57-25.79,25.79,11.57,25.79,25.79,25.79ZM479.99,69.34c10.75,0,19.5,8.75,19.5,19.5s-8.75,19.5-19.5,19.5-19.39-8.64-19.49-19.3c0-.02,0-.03,0-.05v-.15h-.01c0-10.75,8.75-19.5,19.5-19.5ZM389.42,69.51c10.75,0,19.5,8.75,19.5,19.5s-8.75,19.5-19.5,19.5-19.5-8.75-19.5-19.5,8.75-19.5,19.5-19.5Z"/>
  <path class="cls-1" d="M501.77,149.67c-9.71,0-18.23,5.47-22.62,13.53-4.38-8.03-12.91-13.51-22.65-13.51-14.22,0-25.79,11.56-25.79,25.78v22.71h6.29v-22.71c0-10.75,8.75-19.49,19.51-19.49s19.37,8.62,19.49,19.23v.02s0,.02,0,.04v22.92h6.29v-22.71h.02c0-.1,0-.21-.01-.32.17-10.59,8.89-19.19,19.49-19.19s19.51,8.74,19.51,19.49v22.73h6.29v-22.73c0-14.21-11.57-25.78-25.79-25.78Z"/>
  <path class="cls-1" d="M666.5,149.67c-9.76,0-18.26,5.45-22.64,13.47-4.38-8.01-12.88-13.46-22.63-13.46-14.22,0-25.79,11.57-25.79,25.79v22.7h6.29v-22.7c0-10.76,8.75-19.51,19.51-19.51s19.48,8.74,19.49,19.51v22.7h6.29v-22.73c0-10.75,8.74-19.49,19.49-19.49s19.51,8.74,19.51,19.49v22.73h6.29v-22.73c0-14.21-11.57-25.78-25.79-25.78Z"/>
  <path class="cls-1" d="M561.49,149.66c-14.22,0-25.79,11.57-25.79,25.79s11.57,25.79,25.79,25.79c7.8,0,14.78-3.49,19.51-8.98v5.92h6.29v-22.73h-.01c0-14.22-11.57-25.78-25.79-25.78ZM561.49,194.95c-10.75,0-19.5-8.75-19.5-19.5s8.75-19.5,19.5-19.5,19.5,8.75,19.5,19.5-8.75,19.5-19.5,19.5Z"/>
  <path class="cls-1" d="M726.18,149.66c-14.22,0-25.79,11.57-25.79,25.79s11.57,25.79,25.79,25.79c7.8,0,14.78-3.49,19.51-8.98v5.92h6.29v-22.73h-.01c0-14.22-11.57-25.78-25.79-25.78ZM726.18,194.95c-10.75,0-19.5-8.75-19.5-19.5s8.75-19.5,19.5-19.5,19.5,8.75,19.5,19.5-8.75,19.5-19.5,19.5Z"/>
  <path class="cls-1" d="M396.78,149.66c-7.79,0-14.77,3.49-19.5,8.96v-24.31h-6.29v63.87h6.29v-22.74c0-10.75,8.75-19.5,19.5-19.5s19.5,8.74,19.5,19.49h-.01v22.73h6.29v-22.73h.01c0-14.22-11.57-25.79-25.79-25.79Z"/>
</svg>