<?xml version="1.0" encoding="UTF-8"?>
<svg id="Layer_1" xmlns="http://www.w3.org/2000/svg" viewBox="0 0 523.42 420.65">
  <defs>
    <style>
      .cls-1 {
        fill: #fff;
      }
    </style>
  </defs>
  <g>
    <path class="cls-1" d="M354.62,109.04h0c-7.48-13.44-21.84-22.53-38.3-22.53-24.2,0-43.82,19.62-43.82,43.82,0-32.22-17.47-60.37-43.45-75.48-12.78-7.44-27.62-11.73-43.45-11.79v87.27c0,15.4,3.99,29.87,11,42.43,7.64,13.73,18.88,25.17,32.45,33.05,12.88,7.5,27.85,11.8,43.82,11.8,40.67,0,74.86-27.83,84.53-65.49,1.7-6.61,2.64-13.53,2.73-20.66,0-.37.01-.75.01-1.13s0-.76-.01-1.13c-.19-7.31-2.15-14.17-5.5-20.17ZM327.44,130.34c-6.15,0-11.14-4.99-11.14-11.14s4.99-11.14,11.14-11.14,11.14,4.99,11.14,11.14-4.99,11.14-11.14,11.14Z"/>
    <path class="cls-1" d="M185.58,174.16v-43.82h-43.82c0,24.2,19.62,43.82,43.82,43.82Z"/>
    <path class="cls-1" d="M360.13,108.43v21.9h21.54c0-11.97-9.61-21.71-21.54-21.9Z"/>
  </g>
  <g>
    <g>
      <path class="cls-1" d="M304.53,298.75c3.45,6.31,10.15,10.6,17.84,10.6h72.01c11.2,0,20.31-9.12,20.31-20.32s-9.11-20.32-20.32-20.32-20.32,9.11-20.32,20.32h4.95c0-8.47,6.89-15.36,15.36-15.36s15.36,6.89,15.36,15.36-6.89,15.36-15.36,15.36h0s-30.12,0-30.12,0h-41.89c-8.44,0-15.32-6.85-15.36-15.29,0-.03,0-.05,0-.08,0-11.2-9.11-20.32-20.32-20.32s-20.32,9.11-20.32,20.32c0,.01,0,.03,0,.04-.02,8.45-6.9,15.32-15.36,15.32-3.16,0-6.19-.96-8.79-2.78-4.12-2.84-6.58-7.55-6.58-12.59v-34.59h-4.95v34.59c0,6.66,3.26,12.89,8.7,16.65,3.41,2.4,7.43,3.67,11.62,3.67,7.69,0,14.39-4.29,17.84-10.6,3.45,6.31,10.15,10.6,17.84,10.6s14.38-4.29,17.83-10.6ZM286.69,304.39c-8.46,0-15.34-6.87-15.36-15.32,0-.01,0-.03,0-.04h0c0-8.47,6.89-15.36,15.36-15.36s15.36,6.89,15.36,15.36c0,0,0,0,0,0h0s0,.05,0,.08c-.04,8.43-6.91,15.28-15.36,15.28Z"/>
      <path class="cls-1" d="M129.05,309.48c7.7,0,14.41-4.3,17.85-10.62,3.45,6.31,10.16,10.61,17.83,10.61s14.43-4.32,17.87-10.66c3.46,6.28,10.14,10.54,17.8,10.54,11.2,0,20.32-9.11,20.32-20.31s-9.11-20.32-20.32-20.32-20.32,9.11-20.32,20.32c0,.05,0,.1,0,.15-.02,8.45-6.9,15.32-15.36,15.32s-15.34-6.88-15.36-15.41h0c-.03-11.17-9.13-20.25-20.31-20.25s-20.32,9.11-20.32,20.31,9.11,20.32,20.32,20.32ZM200.41,273.67c8.47,0,15.36,6.89,15.36,15.36s-6.89,15.36-15.36,15.36-15.27-6.81-15.36-15.21c0-.01,0-.03,0-.04v-.12h0c0-8.47,6.89-15.36,15.36-15.36ZM129.05,273.8c8.47,0,15.36,6.89,15.36,15.36s-6.89,15.36-15.36,15.36-15.36-6.89-15.36-15.36,6.89-15.36,15.36-15.36Z"/>
    </g>
    <g>
      <path class="cls-1" d="M217.56,336.95c-7.65,0-14.36,4.31-17.82,10.66-3.45-6.33-10.17-10.64-17.84-10.64-11.21,0-20.32,9.11-20.32,20.31v17.89h4.95v-17.89c0-8.47,6.89-15.36,15.37-15.36s15.26,6.79,15.35,15.15v.02s0,.02,0,.03v18.05h4.95v-17.89h.01c0-.08,0-.17,0-.25.13-8.34,7.01-15.12,15.35-15.12s15.37,6.89,15.37,15.36v17.91h4.95v-17.91c0-11.2-9.12-20.31-20.32-20.31Z"/>
      <path class="cls-1" d="M347.34,336.95c-7.69,0-14.39,4.29-17.83,10.61-3.45-6.31-10.15-10.6-17.83-10.6-11.2,0-20.32,9.12-20.32,20.32v17.88h4.95v-17.88c0-8.47,6.89-15.37,15.37-15.37s15.34,6.88,15.36,15.37v17.88h4.95v-17.91c0-8.47,6.89-15.36,15.35-15.36s15.37,6.89,15.37,15.36v17.91h4.95v-17.91c0-11.2-9.12-20.31-20.32-20.31Z"/>
      <path class="cls-1" d="M264.61,336.95c-11.2,0-20.32,9.11-20.32,20.31s9.11,20.32,20.32,20.32c6.14,0,11.64-2.75,15.37-7.07v4.66h4.95v-17.91h0c0-11.2-9.11-20.31-20.31-20.31ZM264.61,372.62c-8.47,0-15.36-6.89-15.36-15.36s6.89-15.36,15.36-15.36,15.36,6.89,15.36,15.36-6.89,15.36-15.36,15.36Z"/>
      <path class="cls-1" d="M394.36,336.95c-11.2,0-20.32,9.11-20.32,20.31s9.11,20.32,20.32,20.32c6.14,0,11.64-2.75,15.37-7.07v4.66h4.95v-17.91h0c0-11.2-9.11-20.31-20.31-20.31ZM394.36,372.62c-8.47,0-15.36-6.89-15.36-15.36s6.89-15.36,15.36-15.36,15.36,6.89,15.36,15.36-6.89,15.36-15.36,15.36Z"/>
      <path class="cls-1" d="M134.85,336.95c-6.14,0-11.63,2.75-15.36,7.06v-19.15h-4.95v50.32h4.95v-17.91c0-8.47,6.89-15.36,15.36-15.36s15.36,6.89,15.36,15.36h0v17.91h4.95v-17.91h.01c0-11.2-9.11-20.31-20.32-20.31Z"/>
    </g>
  </g>
</svg>