<?xml version="1.0" encoding="UTF-8"?>
<svg id="Layer_1" data-name="Layer 1" xmlns="http://www.w3.org/2000/svg" viewBox="0 0 678.57 650">
  <defs>
    <style>
      .cls-1 {
        fill: #fff;
      }
    </style>
  </defs>
  <path class="cls-1" d="M564.77,273.31h-.02c-18.15-32.61-53-54.68-92.97-54.68-58.73,0-106.36,47.63-106.36,106.36,0-78.2-42.4-146.52-105.46-183.19-31.02-18.06-67.02-28.46-105.46-28.61v211.8c0,37.37,9.68,72.49,26.7,102.97,18.53,33.31,45.82,61.09,78.76,80.22,31.26,18.21,67.6,28.63,106.36,28.63,98.72,0,181.68-67.55,205.17-158.94,4.13-16.04,6.42-32.85,6.62-50.13.02-.9.04-1.82.04-2.74s-.02-1.84-.04-2.74c-.45-17.74-5.23-34.4-13.34-48.94ZM498.82,324.99c-14.93,0-27.04-12.11-27.04-27.04s12.11-27.04,27.04-27.04,27.04,12.11,27.04,27.04-12.11,27.04-27.04,27.04Z"/>
  <path class="cls-1" d="M154.51,431.35v-106.36H48.15c0,58.73,47.63,106.36,106.36,106.36Z"/>
  <path class="cls-1" d="M578.14,271.83v53.16h52.28c0-29.06-23.33-52.69-52.28-53.16Z"/>
</svg>