<?xml version="1.0" encoding="UTF-8"?>
<svg id="Layer_1" xmlns="http://www.w3.org/2000/svg" xmlns:xlink="http://www.w3.org/1999/xlink" viewBox="0 0 2562.12 2141.48">
  <defs>
    <style>
      .cls-1 {
        fill: url(#New_Pattern);
      }

      .cls-2, .cls-3 {
        fill: none;
      }

      .cls-3 {
        stroke: #f6f5f1;
        stroke-miterlimit: 10;
      }
    </style>
    <pattern id="New_Pattern" data-name="New Pattern" x="0" y="0" width="262.77" height="197.17" patternTransform="translate(-4126.48 -4633.81)" patternUnits="userSpaceOnUse" viewBox="0 0 262.77 197.17">
      <g>
        <rect class="cls-2" width="262.77" height="197.17"/>
        <g>
          <path class="cls-3" d="M312.14,147.31c0,.19,0,.38,0,.57s0,.38,0,.57c-.04,3.57-.51,7.05-1.37,10.36-4.86,18.9-22.01,32.86-42.42,32.86-8.01,0-15.53-2.15-21.99-5.92-6.81-3.95-12.45-9.7-16.28-16.59-3.52-6.3-5.52-13.56-5.52-21.29v-43.79c7.95.03,15.39,2.18,21.8,5.91,13.04,7.58,21.8,21.71,21.8,37.87,0-12.14,9.85-21.99,21.99-21.99,8.26,0,15.47,4.56,19.22,11.3h0c1.68,3.01,2.66,6.45,2.76,10.12ZM301.34,142.28c0-3.09-2.5-5.59-5.59-5.59s-5.59,2.5-5.59,5.59,2.5,5.59,5.59,5.59,5.59-2.5,5.59-5.59Z"/>
          <path class="cls-3" d="M224.56,169.86v-21.99h-21.99c0,12.14,9.85,21.99,21.99,21.99Z"/>
        </g>
        <g>
          <path class="cls-3" d="M180.76,196.6c0,.19,0,.38,0,.57s0,.38,0,.57c-.04,3.57-.51,7.05-1.37,10.36-4.86,18.9-22.01,32.86-42.42,32.86-8.01,0-15.53-2.15-21.99-5.92-6.81-3.95-12.45-9.7-16.28-16.59-3.52-6.3-5.52-13.56-5.52-21.29v-43.79c7.95.03,15.39,2.18,21.8,5.91,13.04,7.58,21.8,21.71,21.8,37.87,0-12.14,9.85-21.99,21.99-21.99,8.26,0,15.47,4.56,19.22,11.3h0c1.68,3.01,2.66,6.45,2.76,10.12ZM169.96,191.57c0-3.09-2.5-5.59-5.59-5.59s-5.59,2.5-5.59,5.59,2.5,5.59,5.59,5.59,5.59-2.5,5.59-5.59Z"/>
          <path class="cls-3" d="M93.18,219.16v-21.99h-21.99c0,12.14,9.85,21.99,21.99,21.99Z"/>
          <path class="cls-3" d="M180.77,186.17v10.99h10.81c0-6.01-4.82-10.89-10.81-10.99Z"/>
        </g>
        <g>
          <path class="cls-3" d="M49.38,147.31c0,.19,0,.38,0,.57s0,.38,0,.57c-.04,3.57-.51,7.05-1.37,10.36-4.86,18.9-22.01,32.86-42.42,32.86-8.01,0-15.53-2.15-21.99-5.92-6.81-3.95-12.45-9.7-16.28-16.59-3.52-6.3-5.52-13.56-5.52-21.29v-43.79c7.95.03,15.39,2.18,21.8,5.91,13.04,7.58,21.8,21.71,21.8,37.87,0-12.14,9.85-21.99,21.99-21.99,8.26,0,15.47,4.56,19.22,11.3h0c1.68,3.01,2.66,6.45,2.76,10.12ZM38.57,142.28c0-3.09-2.5-5.59-5.59-5.59s-5.59,2.5-5.59,5.59,2.5,5.59,5.59,5.59,5.59-2.5,5.59-5.59Z"/>
          <path class="cls-3" d="M49.38,136.88v10.99h10.81c0-6.01-4.82-10.89-10.81-10.99Z"/>
        </g>
        <g>
          <path class="cls-3" d="M312.14,48.72c0,.19,0,.38,0,.57s0,.38,0,.57c-.04,3.57-.51,7.05-1.37,10.36-4.86,18.9-22.01,32.86-42.42,32.86-8.01,0-15.53-2.15-21.99-5.92-6.81-3.95-12.45-9.7-16.28-16.59-3.52-6.3-5.52-13.56-5.52-21.29V5.5c7.95.03,15.39,2.18,21.8,5.91,13.04,7.58,21.8,21.71,21.8,37.87,0-12.14,9.85-21.99,21.99-21.99,8.26,0,15.47,4.56,19.22,11.3h0c1.68,3.01,2.66,6.45,2.76,10.12ZM301.34,43.7c0-3.09-2.5-5.59-5.59-5.59s-5.59,2.5-5.59,5.59,2.5,5.59,5.59,5.59,5.59-2.5,5.59-5.59Z"/>
          <path class="cls-3" d="M224.56,71.28v-21.99h-21.99c0,12.14,9.85,21.99,21.99,21.99Z"/>
        </g>
        <g>
          <path class="cls-3" d="M180.76,98.02c0,.19,0,.38,0,.57s0,.38,0,.57c-.04,3.57-.51,7.05-1.37,10.36-4.86,18.9-22.01,32.86-42.42,32.86-8.01,0-15.53-2.15-21.99-5.92-6.81-3.95-12.45-9.7-16.28-16.59-3.52-6.3-5.52-13.56-5.52-21.29v-43.79c7.95.03,15.39,2.18,21.8,5.91,13.04,7.58,21.8,21.71,21.8,37.87,0-12.14,9.85-21.99,21.99-21.99,8.26,0,15.47,4.56,19.22,11.3h0c1.68,3.01,2.66,6.45,2.76,10.12ZM169.96,92.99c0-3.09-2.5-5.59-5.59-5.59s-5.59,2.5-5.59,5.59,2.5,5.59,5.59,5.59,5.59-2.5,5.59-5.59Z"/>
          <path class="cls-3" d="M93.18,120.57v-21.99h-21.99c0,12.14,9.85,21.99,21.99,21.99Z"/>
          <path class="cls-3" d="M180.77,87.59v10.99h10.81c0-6.01-4.82-10.89-10.81-10.99Z"/>
        </g>
        <g>
          <path class="cls-3" d="M49.38,48.72c0,.19,0,.38,0,.57s0,.38,0,.57c-.04,3.57-.51,7.05-1.37,10.36-4.86,18.9-22.01,32.86-42.42,32.86-8.01,0-15.53-2.15-21.99-5.92-6.81-3.95-12.45-9.7-16.28-16.59-3.52-6.3-5.52-13.56-5.52-21.29V5.5c7.95.03,15.39,2.18,21.8,5.91C-3.36,19,5.4,33.12,5.4,49.29c0-12.14,9.85-21.99,21.99-21.99,8.26,0,15.47,4.56,19.22,11.3h0c1.68,3.01,2.66,6.45,2.76,10.12ZM38.57,43.7c0-3.09-2.5-5.59-5.59-5.59s-5.59,2.5-5.59,5.59,2.5,5.59,5.59,5.59,5.59-2.5,5.59-5.59Z"/>
          <path class="cls-3" d="M49.38,38.3v10.99h10.81c0-6.01-4.82-10.89-10.81-10.99Z"/>
        </g>
        <g>
          <path class="cls-3" d="M180.76-.57c0,.19,0,.38,0,.57s0,.38,0,.57c-.04,3.57-.51,7.05-1.37,10.36-4.86,18.9-22.01,32.86-42.42,32.86-8.01,0-15.53-2.15-21.99-5.92-6.81-3.95-12.45-9.7-16.28-16.59-3.52-6.3-5.52-13.56-5.52-21.29v-43.79c7.95.03,15.39,2.18,21.8,5.91C128.02-30.3,136.79-16.17,136.79,0c0-12.14,9.85-21.99,21.99-21.99,8.26,0,15.47,4.56,19.22,11.3h0c1.68,3.01,2.66,6.45,2.76,10.12ZM169.96-5.59c0-3.09-2.5-5.59-5.59-5.59s-5.59,2.5-5.59,5.59S161.28,0,164.37,0s5.59-2.5,5.59-5.59Z"/>
          <path class="cls-3" d="M93.18,21.99V0h-21.99c0,12.14,9.85,21.99,21.99,21.99Z"/>
          <path class="cls-3" d="M180.77-10.99V0h10.81c0-6.01-4.82-10.89-10.81-10.99Z"/>
        </g>
      </g>
    </pattern>
  </defs>
  <rect class="cls-1" x="-31.8" y="-22.24" width="2609.93" height="2170.16"/>
</svg>