<?xml version="1.0" encoding="UTF-8"?>
<svg id="Capa_1" xmlns="http://www.w3.org/2000/svg" viewBox="0 0 512 512">
  <defs>
    <style>
      .cls-1 {
        fill: #fff;
      }
    </style>
  </defs>
  <path class="cls-1" d="M479.25,210.47c-45.63,0-87.94-14.59-122.45-39.38v178.88c0,89.34-72.68,162.01-162.01,162.01-34.52,0-66.54-10.88-92.84-29.35-41.77-29.33-69.16-77.85-69.16-132.65,0-89.34,72.68-162.03,162.03-162.03,7.42,0,14.68.62,21.82,1.58v89.86c-6.91-2.15-14.21-3.41-21.82-3.41-40.79,0-73.98,33.19-73.98,74.01,0,28.42,16.13,53.1,39.68,65.49,10.26,5.4,21.93,8.49,34.33,8.49,39.85,0,72.36-31.7,73.86-71.21l.06-352.75h88.02c0,7.64.75,15.08,2.07,22.34,6.21,33.54,26.11,62.31,53.7,80.3,19.2,12.52,42.11,19.84,66.69,19.84v88h.02Z"/>
</svg>